# WaveFront *.obj file (generated by Autodesk ATF)

mtllib 1.mtl

g Solid1

v -0.027101 -0.867543 0.000000
v -0.027101 -0.867543 0.050000
v -0.027101 -0.765436 0.000000
v -0.027101 -0.765436 0.050000
v -0.027101 -0.095258 0.000000
v -0.027101 -0.095258 0.050000
v -0.027101 -0.003686 0.000000
v -0.027101 -0.003686 0.050000
v -0.002220 -0.003230 0.000000
v -0.002220 -0.003230 0.050000
v 0.020964 -0.001862 0.000000
v 0.020964 -0.001862 0.050000
v 0.042451 0.000417 0.000000
v 0.042451 0.000417 0.050000
v 0.062242 0.003608 0.000000
v 0.062242 0.003608 0.050000
v 0.080336 0.007710 0.000000
v 0.080336 0.007710 0.050000
v 0.096734 0.012725 0.000000
v 0.096734 0.012725 0.050000
v 0.111434 0.018650 0.000000
v 0.111434 0.018650 0.050000
v 0.124438 0.025488 0.000000
v 0.124438 0.025488 0.050000
v 0.135935 0.033592 0.000000
v 0.135935 0.033592 0.050000
v 0.146116 0.043316 0.000000
v 0.146116 0.043316 0.050000
v 0.154422 -0.765436 0.000000
v 0.154422 -0.765436 0.050000
v 0.154422 -0.095258 0.000000
v 0.154422 -0.095258 0.050000
v 0.154979 0.054661 0.000000
v 0.154979 0.054661 0.050000
v 0.162526 0.067627 0.000000
v 0.162526 0.067627 0.050000
v 0.168756 0.082214 0.000000
v 0.168756 0.082214 0.050000
v 0.173668 0.098421 0.000000
v 0.173668 0.098421 0.050000
v 0.177264 0.116250 0.000000
v 0.177264 0.116250 0.050000
v 0.179544 0.135699 0.000000
v 0.179544 0.135699 0.050000
v 0.283271 -0.765436 0.000000
v 0.283271 -0.765436 0.050000
v 0.283271 0.135699 0.000000
v 0.283271 0.135699 0.050000
v 0.460743 -0.867543 0.000000
v 0.460743 -0.867543 0.050000
v 0.460743 -0.765436 0.000000
v 0.460743 -0.765436 0.050000
vt 0.000000 0.000000 0.000000
vt 0.259352 0.000000 0.000000
vt 0.259352 0.127000 0.000000
vt 0.000000 0.127000 0.000000
vt 0.000000 0.000000 0.000000
vt 0.461070 0.000000 0.000000
vt 0.461070 0.127000 0.000000
vt 0.000000 0.127000 0.000000
vt 0.000000 0.000000 0.000000
vt 1.702253 0.000000 0.000000
vt 1.702253 0.127000 0.000000
vt 0.000000 0.127000 0.000000
vt 0.000000 0.000000 0.000000
vt 0.461070 0.000000 0.000000
vt 0.461070 0.127000 0.000000
vt 0.000000 0.127000 0.000000
vt 0.000000 0.000000 0.000000
vt 0.232593 0.000000 0.000000
vt 0.232593 0.127000 0.000000
vt 0.000000 0.127000 0.000000
vt -0.576102 0.000000 0.000000
vt -0.540095 0.000000 0.000000
vt -0.504089 0.000000 0.000000
vt -0.468083 0.000000 0.000000
vt -0.432076 0.000000 0.000000
vt -0.396070 0.000000 0.000000
vt -0.360064 0.000000 0.000000
vt -0.324057 0.000000 0.000000
vt -0.288051 0.000000 0.000000
vt -0.252045 0.000000 0.000000
vt -0.216038 0.000000 0.000000
vt -0.180032 0.000000 0.000000
vt -0.144025 0.000000 0.000000
vt -0.108019 0.000000 0.000000
vt -0.072013 0.000000 0.000000
vt -0.036006 0.000000 0.000000
vt 0.000000 0.000000 0.000000
vt 0.000000 0.127000 0.000000
vt -0.036006 0.127000 0.000000
vt -0.072013 0.127000 0.000000
vt -0.108019 0.127000 0.000000
vt -0.144025 0.127000 0.000000
vt -0.180032 0.127000 0.000000
vt -0.216038 0.127000 0.000000
vt -0.252045 0.127000 0.000000
vt -0.288051 0.127000 0.000000
vt -0.324057 0.127000 0.000000
vt -0.360064 0.127000 0.000000
vt -0.396070 0.127000 0.000000
vt -0.432076 0.127000 0.000000
vt -0.468083 0.127000 0.000000
vt -0.504089 0.127000 0.000000
vt -0.540095 0.127000 0.000000
vt -0.576102 0.127000 0.000000
vt 0.000000 0.000000 0.000000
vt 0.263468 0.000000 0.000000
vt 0.263468 0.127000 0.000000
vt 0.000000 0.127000 0.000000
vt 0.000000 0.000000 0.000000
vt 2.288882 0.000000 0.000000
vt 2.288882 0.127000 0.000000
vt 0.000000 0.127000 0.000000
vt 0.000000 0.000000 0.000000
vt 0.450778 0.000000 0.000000
vt 0.450778 0.127000 0.000000
vt 0.000000 0.127000 0.000000
vt 0.000000 0.000000 0.000000
vt 0.259352 0.000000 0.000000
vt 0.259352 0.127000 0.000000
vt 0.000000 0.127000 0.000000
vt 0.000000 0.000000 0.000000
vt 1.239125 0.000000 0.000000
vt 1.239125 0.127000 0.000000
vt 0.000000 0.127000 0.000000
vt -0.663625 -1.067467 0.000000
vt 0.575500 -1.067467 0.000000
vt 0.575500 -0.808115 0.000000
vt 0.114430 -0.808115 0.000000
vt 0.114430 0.894138 0.000000
vt 0.575500 0.894138 0.000000
vt 0.575500 1.126731 0.000000
vt 0.512302 1.127889 0.000000
vt 0.453414 1.131362 0.000000
vt 0.398835 1.137151 0.000000
vt 0.348567 1.145256 0.000000
vt 0.302608 1.155676 0.000000
vt 0.260958 1.168413 0.000000
vt 0.223619 1.183464 0.000000
vt 0.190589 1.200832 0.000000
vt 0.161386 1.221415 0.000000
vt 0.135528 1.246115 0.000000
vt 0.113015 1.274932 0.000000
vt 0.093846 1.307866 0.000000
vt 0.078023 1.344916 0.000000
vt 0.065544 1.386083 0.000000
vt 0.056410 1.431366 0.000000
vt 0.050621 1.480767 0.000000
vt -0.212847 1.480767 0.000000
vt -0.212847 -0.808115 0.000000
vt -0.663625 -0.808115 0.000000
vt -0.575500 -1.067467 0.000000
vt 0.663625 -1.067467 0.000000
vt 0.663625 -0.808115 0.000000
vt 0.212847 -0.808115 0.000000
vt 0.212847 1.480767 0.000000
vt -0.050621 1.480767 0.000000
vt -0.056410 1.431366 0.000000
vt -0.065544 1.386083 0.000000
vt -0.078023 1.344916 0.000000
vt -0.093846 1.307866 0.000000
vt -0.113015 1.274932 0.000000
vt -0.135528 1.246115 0.000000
vt -0.161386 1.221415 0.000000
vt -0.190589 1.200832 0.000000
vt -0.223619 1.183464 0.000000
vt -0.260958 1.168413 0.000000
vt -0.302608 1.155676 0.000000
vt -0.348567 1.145256 0.000000
vt -0.398835 1.137151 0.000000
vt -0.453414 1.131362 0.000000
vt -0.512302 1.127889 0.000000
vt -0.575500 1.126731 0.000000
vt -0.575500 0.894138 0.000000
vt -0.114430 0.894138 0.000000
vt -0.114430 -0.808115 0.000000
vt -0.575500 -0.808115 0.000000
vn -2.540000 0.000000 0.000000
vn -2.540000 0.000000 0.000000
vn -2.540000 0.000000 0.000000
vn -2.540000 0.000000 0.000000
vn 0.000000 2.540000 0.000000
vn 0.000000 2.540000 0.000000
vn 0.000000 2.540000 0.000000
vn 0.000000 2.540000 0.000000
vn -2.540000 0.000000 0.000000
vn -2.540000 0.000000 0.000000
vn -2.540000 0.000000 0.000000
vn -2.540000 0.000000 0.000000
vn 0.000000 -2.540000 0.000000
vn 0.000000 -2.540000 0.000000
vn 0.000000 -2.540000 0.000000
vn 0.000000 -2.540000 0.000000
vn -2.540000 0.000000 0.000000
vn -2.540000 0.000000 0.000000
vn -2.540000 0.000000 0.000000
vn -2.540000 0.000000 0.000000
vn -2.531911 0.202553 0.000000
vn -2.509028 0.395445 0.000000
vn -2.464162 0.616040 0.000000
vn -2.388449 0.864241 0.000000
vn -2.271845 1.135923 0.000000
vn -2.105276 1.421061 0.000000
vn -1.884359 1.703171 0.000000
vn -1.613411 1.961761 0.000000
vn -1.306819 2.178032 0.000000
vn -1.062803 2.306957 0.000000
vn -0.842913 2.396059 0.000000
vn -0.649075 2.455667 0.000000
vn -0.480167 2.494201 0.000000
vn -0.333672 2.517988 0.000000
vn -0.206660 2.531579 0.000000
vn -0.096285 2.538174 0.000000
vn 0.000000 2.540000 0.000000
vn 0.000000 2.540000 0.000000
vn -0.096285 2.538174 0.000000
vn -0.206660 2.531579 0.000000
vn -0.333672 2.517988 0.000000
vn -0.480167 2.494201 0.000000
vn -0.649075 2.455667 0.000000
vn -0.842913 2.396059 0.000000
vn -1.062803 2.306957 0.000000
vn -1.306819 2.178032 0.000000
vn -1.613411 1.961761 0.000000
vn -1.884359 1.703171 0.000000
vn -2.105276 1.421061 0.000000
vn -2.271845 1.135923 0.000000
vn -2.388449 0.864241 0.000000
vn -2.464162 0.616040 0.000000
vn -2.509028 0.395445 0.000000
vn -2.531911 0.202553 0.000000
vn 0.000000 2.540000 0.000000
vn 0.000000 2.540000 0.000000
vn 0.000000 2.540000 0.000000
vn 0.000000 2.540000 0.000000
vn 2.540000 0.000000 0.000000
vn 2.540000 0.000000 0.000000
vn 2.540000 0.000000 0.000000
vn 2.540000 0.000000 0.000000
vn 0.000000 2.540000 0.000000
vn 0.000000 2.540000 0.000000
vn 0.000000 2.540000 0.000000
vn 0.000000 2.540000 0.000000
vn 2.540000 0.000000 0.000000
vn 2.540000 0.000000 0.000000
vn 2.540000 0.000000 0.000000
vn 2.540000 0.000000 0.000000
vn 0.000000 -2.540000 0.000000
vn 0.000000 -2.540000 0.000000
vn 0.000000 -2.540000 0.000000
vn 0.000000 -2.540000 0.000000
vn 0.000000 0.000000 -2.540000
vn 0.000000 0.000000 -2.540000
vn 0.000000 0.000000 -2.540000
vn 0.000000 0.000000 -2.540000
vn 0.000000 0.000000 -2.540000
vn 0.000000 0.000000 -2.540000
vn 0.000000 0.000000 -2.540000
vn 0.000000 0.000000 -2.540000
vn 0.000000 0.000000 -2.540000
vn 0.000000 0.000000 -2.540000
vn 0.000000 0.000000 -2.540000
vn 0.000000 0.000000 -2.540000
vn 0.000000 0.000000 -2.540000
vn 0.000000 0.000000 -2.540000
vn 0.000000 0.000000 -2.540000
vn 0.000000 0.000000 -2.540000
vn 0.000000 0.000000 -2.540000
vn 0.000000 0.000000 -2.540000
vn 0.000000 0.000000 -2.540000
vn 0.000000 0.000000 -2.540000
vn 0.000000 0.000000 -2.540000
vn 0.000000 0.000000 -2.540000
vn 0.000000 0.000000 -2.540000
vn 0.000000 0.000000 -2.540000
vn 0.000000 0.000000 -2.540000
vn 0.000000 0.000000 -2.540000
vn 0.000000 0.000000 2.540000
vn 0.000000 0.000000 2.540000
vn 0.000000 0.000000 2.540000
vn 0.000000 0.000000 2.540000
vn 0.000000 0.000000 2.540000
vn 0.000000 0.000000 2.540000
vn 0.000000 0.000000 2.540000
vn 0.000000 0.000000 2.540000
vn 0.000000 0.000000 2.540000
vn 0.000000 0.000000 2.540000
vn 0.000000 0.000000 2.540000
vn 0.000000 0.000000 2.540000
vn 0.000000 0.000000 2.540000
vn 0.000000 0.000000 2.540000
vn 0.000000 0.000000 2.540000
vn 0.000000 0.000000 2.540000
vn 0.000000 0.000000 2.540000
vn 0.000000 0.000000 2.540000
vn 0.000000 0.000000 2.540000
vn 0.000000 0.000000 2.540000
vn 0.000000 0.000000 2.540000
vn 0.000000 0.000000 2.540000
vn 0.000000 0.000000 2.540000
vn 0.000000 0.000000 2.540000
vn 0.000000 0.000000 2.540000
vn 0.000000 0.000000 2.540000
usemtl 191,191,191
f 3/1/1 1/2/2 4/4/4
f 4/4/4 1/2/2 2/3/3
f 29/5/5 3/6/6 30/8/8
f 30/8/8 3/6/6 4/7/7
f 31/9/9 29/10/10 32/12/12
f 32/12/12 29/10/10 30/11/11
f 5/13/13 31/14/14 6/16/16
f 6/16/16 31/14/14 32/15/15
f 7/17/17 5/18/18 8/20/20
f 8/20/20 5/18/18 6/19/19
f 43/21/21 41/22/22 44/54/54
f 44/54/54 41/22/22 42/53/53
f 42/53/53 41/22/22 39/23/23
f 42/53/53 39/23/23 40/52/52
f 40/52/52 39/23/23 37/24/24
f 40/52/52 37/24/24 38/51/51
f 38/51/51 37/24/24 35/25/25
f 38/51/51 35/25/25 36/50/50
f 36/50/50 35/25/25 33/26/26
f 36/50/50 33/26/26 34/49/49
f 34/49/49 33/26/26 27/27/27
f 34/49/49 27/27/27 28/48/48
f 28/48/48 27/27/27 25/28/28
f 28/48/48 25/28/28 26/47/47
f 26/47/47 25/28/28 23/29/29
f 26/47/47 23/29/29 24/46/46
f 24/46/46 23/29/29 21/30/30
f 24/46/46 21/30/30 22/45/45
f 22/45/45 21/30/30 19/31/31
f 22/45/45 19/31/31 20/44/44
f 20/44/44 19/31/31 17/32/32
f 20/44/44 17/32/32 18/43/43
f 18/43/43 17/32/32 15/33/33
f 18/43/43 15/33/33 16/42/42
f 16/42/42 15/33/33 13/34/34
f 16/42/42 13/34/34 14/41/41
f 14/41/41 13/34/34 11/35/35
f 14/41/41 11/35/35 12/40/40
f 12/40/40 11/35/35 9/36/36
f 12/40/40 9/36/36 10/39/39
f 10/39/39 9/36/36 7/37/37
f 10/39/39 7/37/37 8/38/38
f 47/55/55 43/56/56 48/58/58
f 48/58/58 43/56/56 44/57/57
f 45/59/59 47/60/60 46/62/62
f 46/62/62 47/60/60 48/61/61
f 51/63/63 45/64/64 52/66/66
f 52/66/66 45/64/64 46/65/65
f 49/67/67 51/68/68 50/70/70
f 50/70/70 51/68/68 52/69/69
f 1/71/71 49/72/72 2/74/74
f 2/74/74 49/72/72 50/73/73
f 1/76/76 29/78/78 49/75/75
f 49/75/75 29/78/78 45/99/99
f 49/75/75 45/99/99 51/100/100
f 1/76/76 3/77/77 29/78/78
f 29/78/78 31/79/79 45/99/99
f 45/99/99 31/79/79 47/98/98
f 47/98/98 31/79/79 35/93/93
f 47/98/98 35/93/93 37/94/94
f 5/80/80 15/85/85 31/79/79
f 31/79/79 15/85/85 17/86/86
f 31/79/79 17/86/86 19/87/87
f 7/81/81 9/82/82 5/80/80
f 5/80/80 9/82/82 11/83/83
f 5/80/80 11/83/83 13/84/84
f 13/84/84 15/85/85 5/80/80
f 19/87/87 21/88/88 31/79/79
f 31/79/79 21/88/88 23/89/89
f 31/79/79 23/89/89 25/90/90
f 25/90/90 27/91/91 31/79/79
f 31/79/79 27/91/91 33/92/92
f 31/79/79 33/92/92 35/93/93
f 37/94/94 39/95/95 47/98/98
f 47/98/98 39/95/95 41/96/96
f 47/98/98 41/96/96 43/97/97
f 4/126/126 2/101/101 30/125/125
f 30/125/125 2/101/101 50/102/102
f 30/125/125 50/102/102 46/104/104
f 46/104/104 50/102/102 52/103/103
f 30/125/125 46/104/104 32/124/124
f 32/124/124 46/104/104 48/105/105
f 32/124/124 48/105/105 36/110/110
f 36/110/110 48/105/105 38/109/109
f 38/109/109 48/105/105 40/108/108
f 40/108/108 48/105/105 42/107/107
f 42/107/107 48/105/105 44/106/106
f 36/110/110 34/111/111 32/124/124
f 32/124/124 34/111/111 28/112/112
f 32/124/124 28/112/112 26/113/113
f 26/113/113 24/114/114 32/124/124
f 32/124/124 24/114/114 22/115/115
f 32/124/124 22/115/115 20/116/116
f 20/116/116 18/117/117 32/124/124
f 32/124/124 18/117/117 16/118/118
f 32/124/124 16/118/118 6/123/123
f 6/123/123 16/118/118 14/119/119
f 6/123/123 14/119/119 12/120/120
f 12/120/120 10/121/121 6/123/123
f 6/123/123 10/121/121 8/122/122

# 52 vertices
# 126 texture params
# 126 normals
# 100 facets

# 1 groups
