# WaveFront *.obj file (generated by Autodesk ATF)

mtllib 4.mtl

g Solid1

v 0.148699 -0.687321 0.000000
v 0.148699 -0.687321 0.050000
v 0.148699 -0.546316 0.000000
v 0.148699 -0.546316 0.050000
v 0.254048 -0.579541 0.000000
v 0.254048 -0.579541 0.050000
v 0.590352 -1.030919 0.000000
v 0.590352 -1.030919 0.050000
v 0.590352 -0.687321 0.000000
v 0.590352 -0.687321 0.050000
v 0.590352 -0.579541 0.000000
v 0.590352 -0.579541 0.050000
v 0.590352 -0.188941 0.000000
v 0.590352 -0.188941 0.050000
v 0.596025 -0.030919 0.000000
v 0.596025 -0.030919 0.050000
v 0.719202 -1.030919 0.000000
v 0.719202 -1.030919 0.050000
v 0.719202 -0.687321 0.000000
v 0.719202 -0.687321 0.050000
v 0.719202 -0.579541 0.000000
v 0.719202 -0.579541 0.050000
v 0.719202 -0.030919 0.000000
v 0.719202 -0.030919 0.050000
v 0.838326 -0.687321 0.000000
v 0.838326 -0.687321 0.050000
v 0.838326 -0.579541 0.000000
v 0.838326 -0.579541 0.050000
vt -0.854214 0.000000 0.000000
vt -0.000000 0.000000 0.000000
vt -0.000000 0.127000 0.000000
vt -0.854214 0.127000 0.000000
vt -1.309194 0.000000 0.000000
vt -0.000000 0.000000 0.000000
vt -0.000000 0.127000 0.000000
vt -1.309194 0.127000 0.000000
vt -0.992123 0.000000 0.000000
vt -0.000000 0.000000 0.000000
vt -0.000000 0.127000 0.000000
vt -0.992123 0.127000 0.000000
vt 0.000000 0.000000 0.000000
vt 0.872739 0.000000 0.000000
vt 0.872739 0.127000 0.000000
vt 0.000000 0.127000 0.000000
vt 0.000000 0.000000 0.000000
vt 0.327277 0.000000 0.000000
vt 0.327277 0.127000 0.000000
vt 0.000000 0.127000 0.000000
vt 0.000000 0.000000 0.000000
vt 0.872739 0.000000 0.000000
vt 0.872739 0.127000 0.000000
vt 0.000000 0.127000 0.000000
vt 0.000000 0.000000 0.000000
vt 1.121799 0.000000 0.000000
vt 1.121799 0.127000 0.000000
vt 0.000000 0.127000 0.000000
vt 0.000000 0.000000 0.000000
vt 0.358152 0.000000 0.000000
vt 0.358152 0.127000 0.000000
vt 0.000000 0.127000 0.000000
vt 0.000000 0.000000 0.000000
vt 1.733416 0.000000 0.000000
vt 1.733416 0.127000 0.000000
vt 0.000000 0.127000 0.000000
vt 0.000000 0.000000 0.000000
vt 0.312869 0.000000 0.000000
vt 0.312869 0.127000 0.000000
vt 0.000000 0.127000 0.000000
vt 0.000000 0.000000 0.000000
vt 1.393501 0.000000 0.000000
vt 1.393501 0.127000 0.000000
vt 0.000000 0.127000 0.000000
vt 0.000000 0.000000 0.000000
vt 0.302577 0.000000 0.000000
vt 0.302577 0.127000 0.000000
vt 0.000000 0.127000 0.000000
vt 0.000000 0.000000 0.000000
vt 0.273760 0.000000 0.000000
vt 0.273760 0.127000 0.000000
vt 0.000000 0.127000 0.000000
vt 0.000000 0.000000 0.000000
vt 0.302577 0.000000 0.000000
vt 0.302577 0.127000 0.000000
vt 0.000000 0.127000 0.000000
vt 0.767819 -0.077718 0.000000
vt -0.086394 -0.077718 0.000000
vt -0.086394 0.914405 0.000000
vt -0.716249 -0.351478 0.000000
vt -0.413672 -0.351478 0.000000
vt -0.413672 -1.224217 0.000000
vt -0.086394 -1.224217 0.000000
vt -0.086394 -0.351478 0.000000
vt 1.035405 -0.351478 0.000000
vt 1.035405 0.006675 0.000000
vt -0.100803 1.315783 0.000000
vt -0.413672 1.315783 0.000000
vt -0.413672 -0.077718 0.000000
vt -0.716249 -0.077718 0.000000
vt 0.086394 -0.077718 0.000000
vt -0.767819 -0.077718 0.000000
vt 0.086394 0.914405 0.000000
vt 0.413672 -0.351478 0.000000
vt 0.716249 -0.351478 0.000000
vt 0.716249 -0.077718 0.000000
vt 0.413672 -0.077718 0.000000
vt 0.413672 1.315783 0.000000
vt 0.100803 1.315783 0.000000
vt -1.035405 0.006675 0.000000
vt -1.035405 -0.351478 0.000000
vt 0.086394 -0.351478 0.000000
vt 0.086394 -1.224217 0.000000
vt 0.413672 -1.224217 0.000000
vn 0.000000 2.540000 0.000000
vn 0.000000 2.540000 0.000000
vn 0.000000 2.540000 0.000000
vn 0.000000 2.540000 0.000000
vn 1.924842 -1.657281 0.000000
vn 1.924842 -1.657281 0.000000
vn 1.924842 -1.657281 0.000000
vn 1.924842 -1.657281 0.000000
vn -2.540000 0.000000 0.000000
vn -2.540000 0.000000 0.000000
vn -2.540000 0.000000 0.000000
vn -2.540000 0.000000 0.000000
vn 2.540000 0.000000 0.000000
vn 2.540000 0.000000 0.000000
vn 2.540000 0.000000 0.000000
vn 2.540000 0.000000 0.000000
vn 0.000000 -2.540000 0.000000
vn 0.000000 -2.540000 0.000000
vn 0.000000 -2.540000 0.000000
vn 0.000000 -2.540000 0.000000
vn -2.540000 0.000000 0.000000
vn -2.540000 0.000000 0.000000
vn -2.540000 0.000000 0.000000
vn -2.540000 0.000000 0.000000
vn 0.000000 -2.540000 0.000000
vn 0.000000 -2.540000 0.000000
vn 0.000000 -2.540000 0.000000
vn 0.000000 -2.540000 0.000000
vn -2.540000 0.000000 0.000000
vn -2.540000 0.000000 0.000000
vn -2.540000 0.000000 0.000000
vn -2.540000 0.000000 0.000000
vn -1.918256 1.664901 0.000000
vn -1.918256 1.664901 0.000000
vn -1.918256 1.664901 0.000000
vn -1.918256 1.664901 0.000000
vn 0.000000 2.540000 0.000000
vn 0.000000 2.540000 0.000000
vn 0.000000 2.540000 0.000000
vn 0.000000 2.540000 0.000000
vn 2.540000 0.000000 0.000000
vn 2.540000 0.000000 0.000000
vn 2.540000 0.000000 0.000000
vn 2.540000 0.000000 0.000000
vn 0.000000 2.540000 0.000000
vn 0.000000 2.540000 0.000000
vn 0.000000 2.540000 0.000000
vn 0.000000 2.540000 0.000000
vn 2.540000 0.000000 0.000000
vn 2.540000 0.000000 0.000000
vn 2.540000 0.000000 0.000000
vn 2.540000 0.000000 0.000000
vn 0.000000 -2.540000 0.000000
vn 0.000000 -2.540000 0.000000
vn 0.000000 -2.540000 0.000000
vn 0.000000 -2.540000 0.000000
vn 0.000000 0.000000 -2.540000
vn 0.000000 0.000000 -2.540000
vn 0.000000 0.000000 -2.540000
vn 0.000000 0.000000 -2.540000
vn 0.000000 0.000000 -2.540000
vn 0.000000 0.000000 -2.540000
vn 0.000000 0.000000 -2.540000
vn 0.000000 0.000000 -2.540000
vn 0.000000 0.000000 -2.540000
vn 0.000000 0.000000 -2.540000
vn 0.000000 0.000000 -2.540000
vn 0.000000 0.000000 -2.540000
vn 0.000000 0.000000 -2.540000
vn 0.000000 0.000000 -2.540000
vn 0.000000 0.000000 2.540000
vn 0.000000 0.000000 2.540000
vn 0.000000 0.000000 2.540000
vn 0.000000 0.000000 2.540000
vn 0.000000 0.000000 2.540000
vn 0.000000 0.000000 2.540000
vn 0.000000 0.000000 2.540000
vn 0.000000 0.000000 2.540000
vn 0.000000 0.000000 2.540000
vn 0.000000 0.000000 2.540000
vn 0.000000 0.000000 2.540000
vn 0.000000 0.000000 2.540000
vn 0.000000 0.000000 2.540000
vn 0.000000 0.000000 2.540000
usemtl 191,191,191
f 11/1/1 5/2/2 12/4/4
f 12/4/4 5/2/2 6/3/3
f 5/5/5 13/6/6 6/8/8
f 6/8/8 13/6/6 14/7/7
f 13/9/9 11/10/10 14/12/12
f 14/12/12 11/10/10 12/11/11
f 17/13/13 19/14/14 18/16/16
f 18/16/16 19/14/14 20/15/15
f 7/17/17 17/18/18 8/20/20
f 8/20/20 17/18/18 18/19/19
f 9/21/21 7/22/22 10/24/24
f 10/24/24 7/22/22 8/23/23
f 1/25/25 9/26/26 2/28/28
f 2/28/28 9/26/26 10/27/27
f 3/29/29 1/30/30 4/32/32
f 4/32/32 1/30/30 2/31/31
f 15/33/33 3/34/34 16/36/36
f 16/36/36 3/34/34 4/35/35
f 23/37/37 15/38/38 24/40/40
f 24/40/40 15/38/38 16/39/39
f 21/41/41 23/42/42 22/44/44
f 22/44/44 23/42/42 24/43/43
f 27/45/45 21/46/46 28/48/48
f 28/48/48 21/46/46 22/47/47
f 25/49/49 27/50/50 26/52/52
f 26/52/52 27/50/50 28/51/51
f 19/53/53 25/54/54 20/56/56
f 20/56/56 25/54/54 26/55/55
f 11/58/58 9/64/64 5/57/57
f 5/57/57 9/64/64 1/65/65
f 5/57/57 1/65/65 3/66/66
f 9/64/64 11/58/58 21/69/69
f 21/69/69 11/58/58 13/59/59
f 21/69/69 13/59/59 23/68/68
f 23/68/68 13/59/59 15/67/67
f 15/67/67 13/59/59 3/66/66
f 3/66/66 13/59/59 5/57/57
f 25/60/60 19/61/61 27/70/70
f 27/70/70 19/61/61 21/69/69
f 21/69/69 19/61/61 9/64/64
f 17/62/62 7/63/63 19/61/61
f 19/61/61 7/63/63 9/64/64
f 6/72/72 10/82/82 12/71/71
f 12/71/71 10/82/82 20/74/74
f 12/71/71 20/74/74 22/77/77
f 22/77/77 20/74/74 26/75/75
f 22/77/77 26/75/75 28/76/76
f 14/73/73 4/80/80 6/72/72
f 6/72/72 4/80/80 2/81/81
f 6/72/72 2/81/81 10/82/82
f 12/71/71 22/77/77 14/73/73
f 14/73/73 22/77/77 24/78/78
f 14/73/73 24/78/78 16/79/79
f 16/79/79 4/80/80 14/73/73
f 8/83/83 18/84/84 10/82/82
f 10/82/82 18/84/84 20/74/74

# 28 vertices
# 84 texture params
# 84 normals
# 56 facets

# 1 groups
